<?xml version="1.0" encoding="UTF-8" standalone="no"?>
<svg
   xmlns:dc="http://purl.org/dc/elements/1.1/"
   xmlns:cc="http://creativecommons.org/ns#"
   xmlns:rdf="http://www.w3.org/1999/02/22-rdf-syntax-ns#"
   xmlns:svg="http://www.w3.org/2000/svg"
   xmlns="http://www.w3.org/2000/svg"
   xmlns:sodipodi="http://sodipodi.sourceforge.net/DTD/sodipodi-0.dtd"
   xmlns:inkscape="http://www.inkscape.org/namespaces/inkscape"
   height="32px"
   id="Layer_1"
   style="enable-background:new 0 0 32 32;"
   version="1.1"
   viewBox="0 0 32 32"
   width="32px"
   xml:space="preserve"
   inkscape:version="0.91 r13725"
   sodipodi:docname="if_group_171280.svg"><metadata
     id="metadata9"><rdf:RDF><cc:Work
         rdf:about=""><dc:format>image/svg+xml</dc:format><dc:type
           rdf:resource="http://purl.org/dc/dcmitype/StillImage" /></cc:Work></rdf:RDF></metadata><defs
     id="defs7" /><sodipodi:namedview
     pagecolor="#ffffff"
     bordercolor="#666666"
     borderopacity="1"
     objecttolerance="10"
     gridtolerance="10"
     guidetolerance="10"
     inkscape:pageopacity="0"
     inkscape:pageshadow="2"
     inkscape:window-width="1321"
     inkscape:window-height="744"
     id="namedview5"
     showgrid="false"
     inkscape:zoom="7.375"
     inkscape:cx="42.508475"
     inkscape:cy="16"
     inkscape:window-x="45"
     inkscape:window-y="24"
     inkscape:window-maximized="1"
     inkscape:current-layer="Layer_1" /><path
     d="M25.961,13.322C27.225,11.907,28,10.046,28,8c0-4.418-3.582-8-8-8s-8,3.582-8,8c-4.418,0-8,3.582-8,8  c0,2.046,0.775,3.907,2.039,5.322C2.381,23.076,0,26.378,0,30c0,1.078,0.844,2,2,2h20c1.156,0,2-0.922,2-2  c0-2.215-0.898-4.306-2.427-6H30c1.156,0,2-0.922,2-2C32,18.378,29.619,15.076,25.961,13.322z M20,4c2.209,0,4,1.791,4,4  s-1.791,4-4,4c-0.422,0-0.821-0.083-1.203-0.205c-0.652-1.052-1.54-1.939-2.592-2.592C16.083,8.821,16,8.422,16,8  C16,5.791,17.791,4,20,4z M12,12c2.209,0,4,1.791,4,4s-1.791,4-4,4s-4-1.791-4-4S9.791,12,12,12z M4.494,28  C5.569,25.835,8.32,24,12,24s6.431,1.835,7.506,4H4.494z M18.914,20C19.6,18.823,20,17.46,20,16c3.68,0,6.431,1.835,7.506,4H18.914z  "
     id="path3" /><path
     style="fill:#ffffff"
     d="M 1.0031028,31.610857 C 0.25829405,31.113292 0.03640957,30.539506 0.12038198,29.328169 0.31661233,26.497467 2.3440521,23.481837 5.0887304,21.938209 5.6051205,21.647787 6.0290339,21.357961 6.03076,21.294151 6.0324861,21.230339 5.8776445,20.992434 5.6866675,20.76547 5.2205698,20.211544 4.6152156,18.990613 4.3438568,18.057172 4.0513577,17.05101 4.0479096,15.143628 4.3365761,14.029627 5.1571874,10.862785 7.90481,8.4825272 11.165669,8.1136028 c 0.918764,-0.1039461 0.880571,-0.056212 1.023894,-1.2797045 0.311239,-2.6569181 2.316339,-5.1668786 4.962979,-6.21259846 3.791821,-1.49819488 8.080312,0.18608584 9.970289,3.91577566 0.745324,1.4708269 0.978319,3.8055325 0.543919,5.4503013 -0.24323,0.9209412 -0.865492,2.1982262 -1.353417,2.7780932 -0.190978,0.226963 -0.345818,0.464869 -0.344092,0.52868 0.0017,0.06381 0.441639,0.360087 0.977585,0.658392 1.181933,0.657859 2.967414,2.378193 3.660278,3.526726 1.071771,1.776632 1.605185,4.379006 1.096998,5.351928 -0.135561,0.259529 -0.453804,0.610377 -0.707204,0.779661 -0.456064,0.30467 -0.506665,0.307787 -4.996042,0.307787 l -4.535313,0 0.491365,0.644068 c 1.103424,1.446339 1.975573,3.731151 1.975085,5.174232 -2.71e-4,0.788545 -0.34524,1.479864 -0.935095,1.873913 l -0.460731,0.307787 -10.536167,0 -10.5361673,0 -0.4607299,-0.307787 z M 19.59322,28.051543 c 0,-0.219178 -0.807051,-1.28901 -1.406366,-1.864287 -0.773209,-0.742198 -2.661674,-1.722114 -3.881769,-2.014234 -0.967972,-0.231756 -3.656163,-0.229495 -4.6101697,0.0039 -1.0299527,0.25195 -2.6183295,0.997755 -3.4207699,1.606186 -0.6291596,0.477044 -1.8673657,1.946945 -1.8673657,2.216789 0,0.07103 3.1782107,0.122159 7.5932203,0.122159 4.176271,0 7.59322,-0.03172 7.59322,-0.07049 z m -5.898305,-8.400195 c 0.821886,-0.370555 1.584166,-1.117071 1.99776,-1.956452 0.457846,-0.929188 0.427279,-2.532728 -0.06649,-3.487893 C 14.911795,12.825044 13.542351,11.986441 12,11.986441 c -1.540495,0 -2.9049502,0.834461 -3.6309153,2.220562 -0.496413,0.947813 -0.524752,2.548261 -0.06176,3.487893 1.0065237,2.042716 3.3271358,2.885425 5.3875898,1.956452 z m 13.898305,0.400195 c 0,-0.03877 -0.159983,-0.323921 -0.355518,-0.633669 -0.625194,-0.990372 -1.663469,-1.858578 -2.966516,-2.480605 -1.324694,-0.632359 -1.953507,-0.811707 -3.349555,-0.955341 -1.032864,-0.106267 -0.9632,-0.186377 -1.124085,1.292648 -0.04462,0.41017 -0.235646,1.111865 -0.424507,1.559322 -0.188861,0.447458 -0.37624,0.920339 -0.416399,1.050848 -0.06849,0.222579 0.196937,0.237288 4.281783,0.237288 2.395139,0 4.354797,-0.03172 4.354797,-0.07049 z m -5.898305,-8.400195 c 0.821886,-0.370555 1.584166,-1.117071 1.99776,-1.9564523 C 24.150521,8.7657085 24.119954,7.162168 23.626188,6.2070035 22.408457,3.8513608 19.316842,3.2378591 17.357036,4.9629494 16.312526,5.882363 15.796606,7.2197458 15.9897,8.50739 c 0.07802,0.5202744 0.195857,0.6899973 0.875141,1.2604792 0.691605,0.5808298 1.440851,1.3963788 1.760646,1.9164488 0.137556,0.223702 1.156905,0.406417 1.849089,0.331443 0.298305,-0.03231 0.847458,-0.196296 1.220339,-0.364413 z"
     id="path3337"
     inkscape:connector-curvature="0" /></svg>